HIERARCHY
ROOT Hips
{
  OFFSET 5.84602e-005 68.8428 3.50346
  CHANNELS 6 Xposition Yposition Zposition Zrotation Xrotation Yrotation
  JOINT Spine
  {
    OFFSET 0 8.597 -4.6522
    CHANNELS 3 Zrotation Xrotation Yrotation
    JOINT Spine1
    {
      OFFSET 0 7.8454 0.4098
      CHANNELS 3 Zrotation Xrotation Yrotation
      JOINT Spine2
      {
        OFFSET 0 9.7078 -2.1609
        CHANNELS 3 Zrotation Xrotation Yrotation
        JOINT Neck
        {
          OFFSET 0 21.8761 -0.4549
          CHANNELS 3 Zrotation Xrotation Yrotation
          JOINT Head
          {
            OFFSET 0 12.3537 3.3602
            CHANNELS 3 Zrotation Xrotation Yrotation
            End Site
            {
              OFFSET 0.0001 18.9506 0.5657
            }
          }
        }
        JOINT LeftShoulder
        {
          OFFSET 2.2086 21.1115 7.2329
          CHANNELS 3 Zrotation Xrotation Yrotation
          JOINT LeftArm
          {
            OFFSET 13.1193 3.0282 -4.8998
            CHANNELS 3 Zrotation Xrotation Yrotation
            JOINT LeftForeArm
            {
              OFFSET 27.4081 -0.0973053 -0.2375
              CHANNELS 3 Zrotation Xrotation Yrotation
              JOINT LeftHand
              {
                OFFSET 22.8641 0.0662994 -0.1369
                CHANNELS 3 Zrotation Xrotation Yrotation
                JOINT LeftHandIndex1
                {
                  OFFSET 8.8614 0.775009 2.4612
                  CHANNELS 3 Zrotation Xrotation Yrotation
                  JOINT LeftHandIndex2
                  {
                    OFFSET 3.3146 -0.808304 0.5841
                    CHANNELS 3 Zrotation Xrotation Yrotation
                    JOINT LeftHandIndex3
                    {
                      OFFSET 2.2628 -0.552002 0.3989
                      CHANNELS 3 Zrotation Xrotation Yrotation
                      End Site
                      {
                        OFFSET 1.6102 -0.4807 0.2612
                      }
                    }
                  }
                }
                JOINT LeftHandMiddle1
                {
                  OFFSET 8.9937 0.895004 0.2143
                  CHANNELS 3 Zrotation Xrotation Yrotation
                  JOINT LeftHandMiddle2
                  {
                    OFFSET 4.0984 0.0113983 -0.0242
                    CHANNELS 3 Zrotation Xrotation Yrotation
                    JOINT LeftHandMiddle3
                    {
                      OFFSET 2.2716 0.00689697 -0.0138001
                      CHANNELS 3 Zrotation Xrotation Yrotation
                      End Site
                      {
                        OFFSET 2.0404 -0.1441 0.0027
                      }
                    }
                  }
                }
                JOINT LeftHandRing1
                {
                  OFFSET 8.5234 0.597198 -2.0164
                  CHANNELS 3 Zrotation Xrotation Yrotation
                  JOINT LeftHandRing2
                  {
                    OFFSET 3.7188 -0.188293 -0.2328
                    CHANNELS 3 Zrotation Xrotation Yrotation
                    JOINT LeftHandRing3
                    {
                      OFFSET 2.1191 -0.106598 -0.1332
                      CHANNELS 3 Zrotation Xrotation Yrotation
                      End Site
                      {
                        OFFSET 1.8737 -0.2304 -0.0886
                      }
                    }
                  }
                }
                JOINT LeftHandPinky1
                {
                  OFFSET 7.9094 -0.601089 -3.4825
                  CHANNELS 3 Zrotation Xrotation Yrotation
                  JOINT LeftHandPinky2
                  {
                    OFFSET 2.2874 -0.477005 -0.6314
                    CHANNELS 3 Zrotation Xrotation Yrotation
                    JOINT LeftHandPinky3
                    {
                      OFFSET 1.6774 -0.349396 -0.4633
                      CHANNELS 3 Zrotation Xrotation Yrotation
                      End Site
                      {
                        OFFSET 1.4888 -0.4091 -0.3416
                      }
                    }
                  }
                }
                JOINT LeftHandThumb1
                {
                  OFFSET 1.833 -1.3875 1.3896
                  CHANNELS 3 Zrotation Xrotation Yrotation
                  JOINT LeftHandThumb2
                  {
                    OFFSET 3.4129 -1.121 2.5732
                    CHANNELS 3 Zrotation Xrotation Yrotation
                    JOINT LeftHandThumb3
                    {
                      OFFSET 2.2474 -0.804199 1.6192
                      CHANNELS 3 Zrotation Xrotation Yrotation
                      End Site
                      {
                        OFFSET 1.6527 -0.5689 1.1317
                      }
                    }
                  }
                }
              }
            }
          }
        }
        JOINT RightShoulder
        {
          OFFSET -2.2086 21.1115 7.2329
          CHANNELS 3 Zrotation Xrotation Yrotation
          JOINT RightArm
          {
            OFFSET -13.1216 3.0287 -4.9007
            CHANNELS 3 Zrotation Xrotation Yrotation
            JOINT RightForeArm
            {
              OFFSET -27.4081 -0.0973053 -0.2375
              CHANNELS 3 Zrotation Xrotation Yrotation
              JOINT RightHand
              {
                OFFSET -22.8641 0.0664063 -0.1369
                CHANNELS 3 Zrotation Xrotation Yrotation
                JOINT RightHandIndex1
                {
                  OFFSET -8.8614 0.774994 2.4612
                  CHANNELS 3 Zrotation Xrotation Yrotation
                  JOINT RightHandIndex2
                  {
                    OFFSET -3.3146 -0.808304 0.5841
                    CHANNELS 3 Zrotation Xrotation Yrotation
                    JOINT RightHandIndex3
                    {
                      OFFSET -2.2628 -0.552002 0.3989
                      CHANNELS 3 Zrotation Xrotation Yrotation
                      End Site
                      {
                        OFFSET -1.6102 -0.4807 0.2612
                      }
                    }
                  }
                }
                JOINT RightHandMiddle1
                {
                  OFFSET -8.9937 0.894989 0.2143
                  CHANNELS 3 Zrotation Xrotation Yrotation
                  JOINT RightHandMiddle2
                  {
                    OFFSET -4.0984 0.0113983 -0.0242
                    CHANNELS 3 Zrotation Xrotation Yrotation
                    JOINT RightHandMiddle3
                    {
                      OFFSET -2.2716 0.00691223 -0.0138001
                      CHANNELS 3 Zrotation Xrotation Yrotation
                      End Site
                      {
                        OFFSET -2.0404 -0.1441 0.0027
                      }
                    }
                  }
                }
                JOINT RightHandRing1
                {
                  OFFSET -8.5234 0.597198 -2.0164
                  CHANNELS 3 Zrotation Xrotation Yrotation
                  JOINT RightHandRing2
                  {
                    OFFSET -3.7188 -0.188309 -0.2328
                    CHANNELS 3 Zrotation Xrotation Yrotation
                    JOINT RightHandRing3
                    {
                      OFFSET -2.1191 -0.106598 -0.1332
                      CHANNELS 3 Zrotation Xrotation Yrotation
                      End Site
                      {
                        OFFSET -1.8737 -0.2304 -0.0886
                      }
                    }
                  }
                }
                JOINT RightHandPinky1
                {
                  OFFSET -7.9094 -0.601105 -3.4825
                  CHANNELS 3 Zrotation Xrotation Yrotation
                  JOINT RightHandPinky2
                  {
                    OFFSET -2.2874 -0.477005 -0.6314
                    CHANNELS 3 Zrotation Xrotation Yrotation
                    JOINT RightHandPinky3
                    {
                      OFFSET -1.6774 -0.349396 -0.4633
                      CHANNELS 3 Zrotation Xrotation Yrotation
                      End Site
                      {
                        OFFSET -1.4888 -0.4091 -0.3416
                      }
                    }
                  }
                }
                JOINT RightHandThumb1
                {
                  OFFSET -1.833 -1.38751 1.3896
                  CHANNELS 3 Zrotation Xrotation Yrotation
                  JOINT RightHandThumb2
                  {
                    OFFSET -3.41299 -1.12099 2.5732
                    CHANNELS 3 Zrotation Xrotation Yrotation
                    JOINT RightHandThumb3
                    {
                      OFFSET -2.24741 -0.804108 1.6192
                      CHANNELS 3 Zrotation Xrotation Yrotation
                      End Site
                      {
                        OFFSET -1.6527 -0.5689 1.1317
                      }
                    }
                  }
                }
              }
            }
          }
        }
      }
    }
  }
  JOINT RightUpLeg
  {
    OFFSET -9.1966 3.8861 -0.7581
    CHANNELS 3 Zrotation Xrotation Yrotation
    JOINT RightLeg
    {
      OFFSET -0.7359 -41.0265 0
      CHANNELS 3 Zrotation Xrotation Yrotation
      JOINT RightFoot
      {
        OFFSET 0 -40.2855 0
        CHANNELS 3 Zrotation Xrotation Yrotation
        JOINT RightToeBase
        {
          OFFSET 0 -5.6122 11.7359
          CHANNELS 3 Zrotation Xrotation Yrotation
          End Site
          {
            OFFSET 0 0 7.8731
          }
        }
      }
    }
  }
  JOINT LeftUpLeg
  {
    OFFSET 9.1965 3.8864 -0.7581
    CHANNELS 3 Zrotation Xrotation Yrotation
    JOINT LeftLeg
    {
      OFFSET 0.7359 -41.0268 0
      CHANNELS 3 Zrotation Xrotation Yrotation
      JOINT LeftFoot
      {
        OFFSET 0 -40.2855 0
        CHANNELS 3 Zrotation Xrotation Yrotation
        JOINT LeftToeBase
        {
          OFFSET 0 -5.6122 11.7359
          CHANNELS 3 Zrotation Xrotation Yrotation
          End Site
          {
            OFFSET 0 0 7.8731
          }
        }
      }
    }
  }
}
MOTION
Frames:	4
Frame Time:	0.0333333
5.84602e-005 68.8428 3.50346 0 0 -0 0 0 -0 0 0 -0 0 0 -0 0 0 -0 0 0 -0 0 0 -0 0 0 -0 0 0 -0 0 0 -0 0 0 -0 0 0 -0 0 0 -0 0 0 -0 -0.0146107 -8.87603e-005 -2.63497e-007 2.99804e-018 -2.42657e-020 -1.42182e-022 0 0 -0 -0.0187562 -0.001176 5.858e-005 5.06224e-018 3.88251e-019 1.21329e-020 0 0 -0 -0.012269 -0.00324817 0.000675346 -1.74678e-018 3.88251e-019 -0 0 0 -0 0 0 -0 0 0 -0 0 0 -0 0 0 -0 0 0 -0 0 0 -0 0 0 -0 0 0 -0 0 0 -0 0 0 -0 0.0149955 -9.10982e-005 2.64101e-007 -9.69331e-018 1.21329e-020 -4.7394e-023 0 0 -0 0.0189956 -0.00119102 -5.96516e-005 -5.41541e-019 0 2.42657e-020 0 0 -0 0.0122698 -0.00324857 -0.000673756 -2.00796e-019 0 -1.94126e-019 0 0 -0 0 0 -0 0 0 -0 3.39842 1.33031 -0.0637918 -5.65207e-008 0.834868 -0.000436188 -3.39935 -2.16518 -0.0642563 -8.89002e-024 -1.18485e-023 -1.48106e-024 -3.39844 1.35642 0.0640283 -3.18788e-007 0.782166 -0.000588827 3.39931 -2.13858 0.0634662 1.1399e-023 0 -0 
-1.13872 -2.5095 -4.99232 -13.0539 -27.4089 25.9247 0.275633 5.94317 -1.42976 0.706941 11.8775 -2.9121 0.706942 11.8775 -2.9121 7.02705 -3.8439 0.777735 17.5203 3.87922 -4.16195 13.6655 -11.8864 8.17327 -26.8852 28.3941 -20.5657 28.7579 -12.483 -69.489 -18.7279 -51.9905 1.61675 -6.17947e-031 5.56597e-015 6.36111e-015 -2.35014e-006 -1.57931e-006 1.12966e-006 -3.97569e-016 -2.18663e-015 -0 -6.17947e-031 5.56597e-015 6.36111e-015 -0.014593 -9.024e-005 2.46181e-006 7.95139e-016 4.77083e-015 -0 -6.17947e-031 5.56597e-015 6.36111e-015 -0.0187474 -0.00117843 6.02159e-005 -3.18055e-015 -5.96354e-016 -3.18055e-015 -6.17947e-031 5.56597e-015 6.36111e-015 -0.0122149 -0.00323766 0.000666742 -7.95139e-016 -9.93923e-016 -0 -6.17947e-031 5.56597e-015 6.36111e-015 -2.35014e-006 -1.57931e-006 1.12966e-006 -3.97569e-016 -2.18663e-015 -0 -0.514172 -8.92893 15.5137 72.8993 5.94049 4.97617 -10.7694 -7.80677 61.6664 0.504216 0.840152 -8.71847 -8.42686e-007 -8.5671e-007 4.36343e-007 -1.12358e-006 -1.14228e-006 5.81791e-007 -8.42686e-007 -8.5671e-007 4.36344e-007 -8.42686e-007 -8.5671e-007 4.36343e-007 0.0149911 -9.37337e-005 -2.41655e-006 -8.42695e-007 -8.56652e-007 4.36456e-007 -8.42686e-007 -8.5671e-007 4.36343e-007 0.0190076 -0.00119063 -5.10315e-005 -8.42693e-007 -8.56637e-007 4.36494e-007 -8.42686e-007 -8.5671e-007 4.36343e-007 0.0122897 -0.00325274 -0.000669073 -8.42677e-007 -8.56665e-007 4.3646e-007 -8.42686e-007 -8.5671e-007 4.36343e-007 -1.12358e-006 -1.14228e-006 5.81791e-007 -8.42686e-007 -8.5671e-007 4.36344e-007 67.6548 -80.234 105.61 -176.123 58.3663 173.75 32.8005 40.8079 -0.90504 7.11012e-006 1.00601e-006 -5.24743e-007 -33.2909 -72.9435 21.4139 -167.08 77.03 169.714 -27.3608 30.0162 42.8455 4.77083e-015 0 -3.18055e-015 
-1.13872 -2.5095 -4.99232 -13.0539 -27.4089 25.9247 0.275633 5.94317 -1.42976 0.706941 11.8775 -2.9121 0.706942 11.8775 -2.9121 6.9242 -4.0969 0.941901 17.5204 3.87946 -4.16225 13.6655 -11.8864 8.17327 -26.8852 28.3941 -20.5657 28.7579 -12.483 -69.489 -18.5613 -51.9645 1.49139 -2.34821e-006 -1.58386e-006 1.13405e-006 -2.34821e-006 -1.58386e-006 1.13405e-006 -2.34821e-006 -1.58386e-006 1.13405e-006 -2.34821e-006 -1.58386e-006 1.13405e-006 -0.0146131 -8.90728e-005 -2.71063e-007 -2.34801e-006 -1.584e-006 1.13385e-006 -2.34821e-006 -1.58386e-006 1.13405e-006 -0.0187732 -0.00117951 6.10073e-005 -2.34795e-006 -1.58403e-006 1.13382e-006 -2.34821e-006 -1.58386e-006 1.13405e-006 -0.0123165 -0.00325862 0.000681567 -2.34802e-006 -1.58392e-006 1.13394e-006 -2.34821e-006 -1.58386e-006 1.13405e-006 -2.34821e-006 -1.58386e-006 1.13405e-006 -2.34821e-006 -1.58386e-006 1.13405e-006 -0.514172 -8.92893 15.5137 72.8993 5.94048 4.97624 -10.7521 -7.83079 61.794 0.710835 0.840132 -8.71847 5.94056e-008 1.93998e-007 8.43046e-009 8.43787e-007 8.5503e-007 -4.37674e-007 5.62525e-007 5.7002e-007 -2.91782e-007 5.94056e-008 1.93998e-007 8.43046e-009 0.0150074 -9.43069e-005 -1.03547e-005 5.62531e-007 5.69982e-007 -2.91858e-007 5.94056e-008 1.93998e-007 8.43046e-009 0.0189599 -0.00119094 -6.48607e-005 5.62529e-007 5.69971e-007 -2.91883e-007 5.94056e-008 1.93998e-007 8.43046e-009 0.0122536 -0.003246 -0.000683897 5.62518e-007 5.69991e-007 -2.9186e-007 5.94056e-008 1.93998e-007 8.43046e-009 8.43787e-007 8.5503e-007 -4.37674e-007 5.62525e-007 5.7002e-007 -2.91782e-007 67.6548 -80.234 105.61 -176.123 58.3663 173.75 32.8005 40.8079 -0.90504 7.11012e-006 1.00601e-006 -5.24743e-007 -33.2909 -72.9435 21.4139 -167.08 77.03 169.714 -27.3608 30.0162 42.8455 4.77182e-007 8.69544e-007 -8.08141e-007 
-1.13872 -2.5095 -4.99232 -13.0539 -27.4089 25.9247 0.275633 5.94317 -1.42976 0.706941 11.8775 -2.9121 0.706942 11.8775 -2.9121 6.82194 -4.35027 1.10579 17.5205 3.87971 -4.16256 13.6655 -11.8864 8.17327 -26.8852 28.3941 -20.5657 28.7579 -12.483 -69.489 -18.3947 -51.9386 1.36584 -2.34627e-006 -1.58841e-006 1.13844e-006 -1.21382e-031 2.18663e-015 3.18055e-015 -2.34627e-006 -1.58841e-006 1.13844e-006 -2.34627e-006 -1.58841e-006 1.13844e-006 -0.0146348 -8.7092e-005 4.78796e-007 -2.52425e-008 -1.40109e-006 1.90643e-006 -2.34627e-006 -1.58841e-006 1.13844e-006 -0.018794 -0.0011798 5.75817e-005 -2.34601e-006 -1.58858e-006 1.1382e-006 -2.34627e-006 -1.58841e-006 1.13844e-006 -0.0122487 -0.00324194 0.000678674 -2.34608e-006 -1.58847e-006 1.13833e-006 -2.34627e-006 -1.58841e-006 1.13844e-006 -1.21382e-031 2.18663e-015 3.18055e-015 -2.34627e-006 -1.58841e-006 1.13844e-006 -0.514172 -8.92893 15.5137 72.8992 5.94048 4.97632 -10.7347 -7.85478 61.9216 0.917614 0.840134 -8.71845 -2.81629e-007 -2.84449e-007 1.46333e-007 -8.44887e-007 -8.53346e-007 4.38999e-007 3.18055e-015 -5.1684e-015 1.59028e-015 -2.81629e-007 -2.84449e-007 1.46333e-007 0.0150213 -9.4298e-005 3.02414e-006 -2.40657e-007 -9.08905e-008 1.42947e-007 -2.81629e-007 -2.84449e-007 1.46333e-007 0.0189738 -0.00118704 -5.68611e-005 -3.18055e-015 -1.23246e-014 7.95139e-016 -2.81629e-007 -2.84449e-007 1.46333e-007 0.0122677 -0.00324672 -0.000670946 -1.65521e-032 -3.97569e-016 -2.38542e-015 -2.81629e-007 -2.84449e-007 1.46333e-007 -8.44887e-007 -8.53346e-007 4.38999e-007 3.18055e-015 -5.1684e-015 1.59028e-015 67.6548 -80.234 105.61 -176.123 58.3663 173.75 32.8005 40.8079 -0.90504 7.11012e-006 1.00601e-006 -5.24743e-007 -33.2909 -72.9435 21.4139 -167.08 77.03 169.714 -27.3608 30.0162 42.8455 4.77182e-007 8.69544e-007 -8.08141e-007 
